<?xml version="1.0" standalone="no"?>
<!DOCTYPE svg PUBLIC "-//W3C//DTD SVG 20010904//EN"
 "http://www.w3.org/TR/2001/REC-SVG-20010904/DTD/svg10.dtd">
<svg version="1.0" xmlns="http://www.w3.org/2000/svg"
 width="400.000000pt" height="400.000000pt" viewBox="0 0 400.000000 400.000000"
 preserveAspectRatio="xMidYMid meet">
<metadata>
Created by potrace 1.11, written by Peter Selinger 2001-2013
</metadata>
<g transform="translate(0.000000,400.000000) scale(0.100000,-0.100000)"
fill="#000000" stroke="none">
<path d="M2019 3940 c-75 -56 -190 -174 -238 -244 -57 -82 -110 -200 -132
-292 -18 -75 -20 -110 -17 -224 5 -134 5 -137 62 -300 45 -129 59 -183 63
-245 19 -275 -190 -482 -418 -413 -93 27 -153 123 -153 244 0 50 -1 52 -23 43
-49 -18 -191 -106 -283 -174 -288 -215 -470 -496 -525 -812 -18 -106 -19 -313
-1 -413 67 -371 324 -682 747 -904 171 -89 475 -203 334 -124 -224 124 -363
291 -415 494 -41 161 -19 358 60 519 102 212 327 417 650 593 187 103 193 106
305 203 123 106 192 179 211 224 8 20 14 67 14 112 l0 77 31 -30 c47 -44 115
-143 138 -200 36 -92 44 -166 26 -236 -21 -84 -48 -129 -180 -307 -145 -198
-170 -245 -169 -331 1 -149 108 -240 282 -240 36 0 83 6 106 12 58 18 119 82
136 143 15 52 18 171 6 218 -3 15 -3 27 2 27 4 0 44 -29 89 -65 207 -163 323
-386 323 -619 0 -112 -18 -186 -71 -295 -33 -67 -59 -102 -133 -175 -50 -51
-119 -110 -154 -131 -34 -21 -61 -40 -59 -42 8 -8 196 61 292 107 297 143 496
330 620 585 81 166 115 317 115 520 0 566 -315 1119 -930 1632 -435 362 -603
566 -680 822 -27 88 -23 170 14 244 12 26 23 47 22 47 -1 0 -31 -22 -67 -50z"/>
</g>
</svg>
