<svg xmlns="http://www.w3.org/2000/svg" viewBox="0 0 70 70"><defs><style>.cls-1{fill:#49556b;}</style></defs><title>oncourse-icon-imp-staging</title><path d="M58.74 26.4h2v2.47h-2zM58.74 36.24h2v2.46h-2zM58.74 31.33h2v2.46h-2zM58.74 41.15h2v2.46h-2zM58.74 50.97h2v2.46h-2zM58.74 46.06h2v2.46h-2zM58.74 21.5h2v2.46h-2zM58.74 58.2h1a1 1 0 0 0 1-1v-1h-2zM39.48 56.2h2.46v2h-2.46zM34.57 56.2h2.46v2h-2.46zM19.83 56.2h2.46v2h-2.47zM24.75 56.2h2.46v2h-2.45zM12.3 56.2h.16v2h-.17zM14.92 56.2h2.46v2h-2.46zM44.4 56.2h2.45v2H44.4zM29.66 56.2h2.46v2h-2.46zM54.22 56.2h2.46v2h-2.46zM49.3 56.2h2.47v2H49.3zM9.26 57.2a1 1 0 0 0 1 1h1v-2h-2zM9.26 32.17h2v2.46h-2zM9.26 37.08h2v2.46h-2zM9.26 46.9h2v2.47h-2zM9.26 22.35h2v2.46h-2zM9.26 51.82h2v2.46h-2zM9.26 27.26h2v2.46h-2zM9.26 42h2v2.46h-2zM59.74 11.8H10.26a1 1 0 0 0-1 1v6.77h51.48V12.8a1 1 0 0 0-1-1zm-48.5 2h47.5v3.77H11.26zM12.52 14.64h1.88v2h-1.88zM15.77 14.64h1.88v2h-1.88zM19.02 14.64h1.88v2h-1.88zM25.16 37.37l5.2-4.12-1.24-1.57-6.2 4.9a1 1 0 0 0 0 1.58l6.2 4.9 1.24-1.56zM40.9 31.68l-1.25 1.57 5.2 4.12-5.2 4.12 1.24 1.56 6.18-4.9a1 1 0 0 0 0-1.58zM32 44.75l4.45-15.32 1.92.56-4.45 15.3z" class="cls-1"/></svg>